G04 #@! TF.FileFunction,Copper,L2,Bot,Signal*
%FSLAX46Y46*%
G04 Gerber Fmt 4.6, Leading zero omitted, Abs format (unit mm)*
G04 Created by KiCad (PCBNEW 4.0.2-stable) date Monday, September 05, 2016 'PMt' 06:21:07 PM*
%MOMM*%
G01*
G04 APERTURE LIST*
%ADD10C,0.100000*%
%ADD11C,0.250000*%
%ADD12R,1.727200X2.032000*%
%ADD13O,1.727200X2.032000*%
%ADD14C,0.400000*%
%ADD15C,0.600000*%
%ADD16C,0.380000*%
G04 APERTURE END LIST*
D10*
D11*
X159511191Y-110752381D02*
X160082620Y-110752381D01*
X159796906Y-110752381D02*
X159796906Y-109752381D01*
X159892144Y-109895238D01*
X159987382Y-109990476D01*
X160082620Y-110038095D01*
X158654048Y-109752381D02*
X158844525Y-109752381D01*
X158939763Y-109800000D01*
X158987382Y-109847619D01*
X159082620Y-109990476D01*
X159130239Y-110180952D01*
X159130239Y-110561905D01*
X159082620Y-110657143D01*
X159035001Y-110704762D01*
X158939763Y-110752381D01*
X158749286Y-110752381D01*
X158654048Y-110704762D01*
X158606429Y-110657143D01*
X158558810Y-110561905D01*
X158558810Y-110323810D01*
X158606429Y-110228571D01*
X158654048Y-110180952D01*
X158749286Y-110133333D01*
X158939763Y-110133333D01*
X159035001Y-110180952D01*
X159082620Y-110228571D01*
X159130239Y-110323810D01*
X156892143Y-110752381D02*
X157368334Y-110752381D01*
X157368334Y-109752381D01*
X156558810Y-110228571D02*
X156225476Y-110228571D01*
X156082619Y-110752381D02*
X156558810Y-110752381D01*
X156558810Y-109752381D01*
X156082619Y-109752381D01*
X155654048Y-110752381D02*
X155654048Y-109752381D01*
X155415953Y-109752381D01*
X155273095Y-109800000D01*
X155177857Y-109895238D01*
X155130238Y-109990476D01*
X155082619Y-110180952D01*
X155082619Y-110323810D01*
X155130238Y-110514286D01*
X155177857Y-110609524D01*
X155273095Y-110704762D01*
X155415953Y-110752381D01*
X155654048Y-110752381D01*
X153892143Y-110752381D02*
X153892143Y-109752381D01*
X153654048Y-109752381D01*
X153511190Y-109800000D01*
X153415952Y-109895238D01*
X153368333Y-109990476D01*
X153320714Y-110180952D01*
X153320714Y-110323810D01*
X153368333Y-110514286D01*
X153415952Y-110609524D01*
X153511190Y-110704762D01*
X153654048Y-110752381D01*
X153892143Y-110752381D01*
X152892143Y-110752381D02*
X152892143Y-110085714D01*
X152892143Y-110276190D02*
X152844524Y-110180952D01*
X152796905Y-110133333D01*
X152701667Y-110085714D01*
X152606428Y-110085714D01*
X152273095Y-110752381D02*
X152273095Y-110085714D01*
X152273095Y-109752381D02*
X152320714Y-109800000D01*
X152273095Y-109847619D01*
X152225476Y-109800000D01*
X152273095Y-109752381D01*
X152273095Y-109847619D01*
X151892143Y-110085714D02*
X151654048Y-110752381D01*
X151415952Y-110085714D01*
X150654047Y-110704762D02*
X150749285Y-110752381D01*
X150939762Y-110752381D01*
X151035000Y-110704762D01*
X151082619Y-110609524D01*
X151082619Y-110228571D01*
X151035000Y-110133333D01*
X150939762Y-110085714D01*
X150749285Y-110085714D01*
X150654047Y-110133333D01*
X150606428Y-110228571D01*
X150606428Y-110323810D01*
X151082619Y-110419048D01*
X150177857Y-110752381D02*
X150177857Y-110085714D01*
X150177857Y-110276190D02*
X150130238Y-110180952D01*
X150082619Y-110133333D01*
X149987381Y-110085714D01*
X149892142Y-110085714D01*
X148939761Y-109752381D02*
X148606428Y-110752381D01*
X148273094Y-109752381D01*
X147415951Y-110752381D02*
X147987380Y-110752381D01*
X147701666Y-110752381D02*
X147701666Y-109752381D01*
X147796904Y-109895238D01*
X147892142Y-109990476D01*
X147987380Y-110038095D01*
X146987380Y-110657143D02*
X146939761Y-110704762D01*
X146987380Y-110752381D01*
X147034999Y-110704762D01*
X146987380Y-110657143D01*
X146987380Y-110752381D01*
X146320714Y-109752381D02*
X146225475Y-109752381D01*
X146130237Y-109800000D01*
X146082618Y-109847619D01*
X146034999Y-109942857D01*
X145987380Y-110133333D01*
X145987380Y-110371429D01*
X146034999Y-110561905D01*
X146082618Y-110657143D01*
X146130237Y-110704762D01*
X146225475Y-110752381D01*
X146320714Y-110752381D01*
X146415952Y-110704762D01*
X146463571Y-110657143D01*
X146511190Y-110561905D01*
X146558809Y-110371429D01*
X146558809Y-110133333D01*
X146511190Y-109942857D01*
X146463571Y-109847619D01*
X146415952Y-109800000D01*
X146320714Y-109752381D01*
X159630238Y-111878571D02*
X159487381Y-111926190D01*
X159439762Y-111973810D01*
X159392143Y-112069048D01*
X159392143Y-112211905D01*
X159439762Y-112307143D01*
X159487381Y-112354762D01*
X159582619Y-112402381D01*
X159963572Y-112402381D01*
X159963572Y-111402381D01*
X159630238Y-111402381D01*
X159535000Y-111450000D01*
X159487381Y-111497619D01*
X159439762Y-111592857D01*
X159439762Y-111688095D01*
X159487381Y-111783333D01*
X159535000Y-111830952D01*
X159630238Y-111878571D01*
X159963572Y-111878571D01*
X158963572Y-112307143D02*
X158915953Y-112354762D01*
X158963572Y-112402381D01*
X159011191Y-112354762D01*
X158963572Y-112307143D01*
X158963572Y-112402381D01*
X157154048Y-112307143D02*
X157201667Y-112354762D01*
X157344524Y-112402381D01*
X157439762Y-112402381D01*
X157582620Y-112354762D01*
X157677858Y-112259524D01*
X157725477Y-112164286D01*
X157773096Y-111973810D01*
X157773096Y-111830952D01*
X157725477Y-111640476D01*
X157677858Y-111545238D01*
X157582620Y-111450000D01*
X157439762Y-111402381D01*
X157344524Y-111402381D01*
X157201667Y-111450000D01*
X157154048Y-111497619D01*
X156296905Y-112402381D02*
X156296905Y-111878571D01*
X156344524Y-111783333D01*
X156439762Y-111735714D01*
X156630239Y-111735714D01*
X156725477Y-111783333D01*
X156296905Y-112354762D02*
X156392143Y-112402381D01*
X156630239Y-112402381D01*
X156725477Y-112354762D01*
X156773096Y-112259524D01*
X156773096Y-112164286D01*
X156725477Y-112069048D01*
X156630239Y-112021429D01*
X156392143Y-112021429D01*
X156296905Y-111973810D01*
X155820715Y-112402381D02*
X155820715Y-111735714D01*
X155820715Y-111926190D02*
X155773096Y-111830952D01*
X155725477Y-111783333D01*
X155630239Y-111735714D01*
X155535000Y-111735714D01*
X155201667Y-112402381D02*
X155201667Y-111735714D01*
X155201667Y-111926190D02*
X155154048Y-111830952D01*
X155106429Y-111783333D01*
X155011191Y-111735714D01*
X154915952Y-111735714D01*
X154582619Y-112402381D02*
X154582619Y-111735714D01*
X154582619Y-111402381D02*
X154630238Y-111450000D01*
X154582619Y-111497619D01*
X154535000Y-111450000D01*
X154582619Y-111402381D01*
X154582619Y-111497619D01*
X154201667Y-111735714D02*
X153677857Y-111735714D01*
X154201667Y-112402381D01*
X153677857Y-112402381D01*
X152868333Y-112402381D02*
X152868333Y-111878571D01*
X152915952Y-111783333D01*
X153011190Y-111735714D01*
X153201667Y-111735714D01*
X153296905Y-111783333D01*
X152868333Y-112354762D02*
X152963571Y-112402381D01*
X153201667Y-112402381D01*
X153296905Y-112354762D01*
X153344524Y-112259524D01*
X153344524Y-112164286D01*
X153296905Y-112069048D01*
X153201667Y-112021429D01*
X152963571Y-112021429D01*
X152868333Y-111973810D01*
X152249286Y-112402381D02*
X152344524Y-112354762D01*
X152392143Y-112259524D01*
X152392143Y-111402381D01*
X151487380Y-112354762D02*
X151582618Y-112402381D01*
X151773095Y-112402381D01*
X151868333Y-112354762D01*
X151915952Y-112259524D01*
X151915952Y-111878571D01*
X151868333Y-111783333D01*
X151773095Y-111735714D01*
X151582618Y-111735714D01*
X151487380Y-111783333D01*
X151439761Y-111878571D01*
X151439761Y-111973810D01*
X151915952Y-112069048D01*
X151058809Y-112354762D02*
X150963571Y-112402381D01*
X150773095Y-112402381D01*
X150677856Y-112354762D01*
X150630237Y-112259524D01*
X150630237Y-112211905D01*
X150677856Y-112116667D01*
X150773095Y-112069048D01*
X150915952Y-112069048D01*
X151011190Y-112021429D01*
X151058809Y-111926190D01*
X151058809Y-111878571D01*
X151011190Y-111783333D01*
X150915952Y-111735714D01*
X150773095Y-111735714D01*
X150677856Y-111783333D01*
X149487380Y-111497619D02*
X149439761Y-111450000D01*
X149344523Y-111402381D01*
X149106427Y-111402381D01*
X149011189Y-111450000D01*
X148963570Y-111497619D01*
X148915951Y-111592857D01*
X148915951Y-111688095D01*
X148963570Y-111830952D01*
X149534999Y-112402381D01*
X148915951Y-112402381D01*
X148296904Y-111402381D02*
X148201665Y-111402381D01*
X148106427Y-111450000D01*
X148058808Y-111497619D01*
X148011189Y-111592857D01*
X147963570Y-111783333D01*
X147963570Y-112021429D01*
X148011189Y-112211905D01*
X148058808Y-112307143D01*
X148106427Y-112354762D01*
X148201665Y-112402381D01*
X148296904Y-112402381D01*
X148392142Y-112354762D01*
X148439761Y-112307143D01*
X148487380Y-112211905D01*
X148534999Y-112021429D01*
X148534999Y-111783333D01*
X148487380Y-111592857D01*
X148439761Y-111497619D01*
X148392142Y-111450000D01*
X148296904Y-111402381D01*
X147011189Y-112402381D02*
X147582618Y-112402381D01*
X147296904Y-112402381D02*
X147296904Y-111402381D01*
X147392142Y-111545238D01*
X147487380Y-111640476D01*
X147582618Y-111688095D01*
X146154046Y-111402381D02*
X146344523Y-111402381D01*
X146439761Y-111450000D01*
X146487380Y-111497619D01*
X146582618Y-111640476D01*
X146630237Y-111830952D01*
X146630237Y-112211905D01*
X146582618Y-112307143D01*
X146534999Y-112354762D01*
X146439761Y-112402381D01*
X146249284Y-112402381D01*
X146154046Y-112354762D01*
X146106427Y-112307143D01*
X146058808Y-112211905D01*
X146058808Y-111973810D01*
X146106427Y-111878571D01*
X146154046Y-111830952D01*
X146249284Y-111783333D01*
X146439761Y-111783333D01*
X146534999Y-111830952D01*
X146582618Y-111878571D01*
X146630237Y-111973810D01*
D12*
X140970000Y-72390000D03*
D13*
X138430000Y-72390000D03*
X135890000Y-72390000D03*
X133350000Y-72390000D03*
X130810000Y-72390000D03*
D14*
X113665000Y-109220000D03*
X130175000Y-107315000D03*
X130175000Y-93345000D03*
X143510000Y-95885000D03*
X142240000Y-92710000D03*
X143510000Y-83820000D03*
X141605000Y-107315000D03*
X141605000Y-99695000D03*
X141605000Y-85090000D03*
D15*
X128270000Y-104775000D03*
X128270000Y-99060000D03*
X123825000Y-93980000D03*
X123825000Y-101600000D03*
X125095000Y-90170000D03*
X126365000Y-102870000D03*
X146050000Y-104140000D03*
X133350000Y-76835000D03*
X152400000Y-107950000D03*
X154305000Y-72390000D03*
X144145000Y-78105000D03*
X137160000Y-91440000D03*
X133985000Y-91440000D03*
X133985000Y-75565000D03*
X142240000Y-75565000D03*
X142240000Y-78105000D03*
X140335000Y-91440000D03*
D16*
X130175000Y-107315000D02*
X130175000Y-109855000D01*
X114935000Y-110490000D02*
X113665000Y-109220000D01*
X129540000Y-110490000D02*
X114935000Y-110490000D01*
X130175000Y-109855000D02*
X129540000Y-110490000D01*
X129540000Y-106680000D02*
X130175000Y-107315000D01*
X129540000Y-93980000D02*
X129540000Y-106680000D01*
X130175000Y-93345000D02*
X129540000Y-93980000D01*
X141605000Y-97790000D02*
X141605000Y-99695000D01*
X143510000Y-95885000D02*
X141605000Y-97790000D01*
X143510000Y-91440000D02*
X142240000Y-92710000D01*
X143510000Y-83820000D02*
X143510000Y-91440000D01*
X141605000Y-107315000D02*
X141605000Y-99695000D01*
X138430000Y-72390000D02*
X138430000Y-73660000D01*
X141605000Y-80010000D02*
X141605000Y-85090000D01*
X140970000Y-79375000D02*
X141605000Y-80010000D01*
X131445000Y-79375000D02*
X140970000Y-79375000D01*
X130175000Y-78105000D02*
X131445000Y-79375000D01*
X130175000Y-74930000D02*
X130175000Y-78105000D01*
X130810000Y-74295000D02*
X130175000Y-74930000D01*
X137795000Y-74295000D02*
X130810000Y-74295000D01*
X138430000Y-73660000D02*
X137795000Y-74295000D01*
D11*
X128270000Y-99060000D02*
X128270000Y-104775000D01*
X123825000Y-101600000D02*
X123825000Y-93980000D01*
X125095000Y-101600000D02*
X125095000Y-90170000D01*
X126365000Y-102870000D02*
X125095000Y-101600000D01*
X147320000Y-102870000D02*
X146050000Y-104140000D01*
X147320000Y-77470000D02*
X147320000Y-102870000D01*
X146685000Y-76835000D02*
X147320000Y-77470000D01*
X133350000Y-76835000D02*
X146685000Y-76835000D01*
X135890000Y-72390000D02*
X135890000Y-71120000D01*
X152400000Y-72390000D02*
X152400000Y-107950000D01*
X149860000Y-69850000D02*
X152400000Y-72390000D01*
X137160000Y-69850000D02*
X149860000Y-69850000D01*
X135890000Y-71120000D02*
X137160000Y-69850000D01*
X133350000Y-69215000D02*
X133350000Y-72390000D01*
X134620000Y-67945000D02*
X133350000Y-69215000D01*
X153670000Y-67945000D02*
X134620000Y-67945000D01*
X154305000Y-68580000D02*
X153670000Y-67945000D01*
X154305000Y-72390000D02*
X154305000Y-68580000D01*
X144145000Y-92075000D02*
X144145000Y-78105000D01*
X141605000Y-94615000D02*
X144145000Y-92075000D01*
X138430000Y-94615000D02*
X141605000Y-94615000D01*
X137795000Y-93980000D02*
X138430000Y-94615000D01*
X137795000Y-92075000D02*
X137795000Y-93980000D01*
X137160000Y-91440000D02*
X137795000Y-92075000D01*
X128905000Y-74295000D02*
X130810000Y-72390000D01*
X128905000Y-78105000D02*
X128905000Y-74295000D01*
X132080000Y-81280000D02*
X128905000Y-78105000D01*
X133350000Y-81280000D02*
X132080000Y-81280000D01*
X133985000Y-81915000D02*
X133350000Y-81280000D01*
X133985000Y-91440000D02*
X133985000Y-81915000D01*
X142240000Y-75565000D02*
X133985000Y-75565000D01*
X142240000Y-89535000D02*
X142240000Y-78105000D01*
X140335000Y-91440000D02*
X142240000Y-89535000D01*
M02*
