M48
;DRILL file {KiCad 4.0.2-stable} date Monday, September 05, 2016 'PMt' 06:21:10 PM
;FORMAT={-:-/ absolute / inch / decimal}
FMAT,2
INCH,TZ
T1C0.012
T2C0.016
T3C0.040
%
G90
G05
M72
T1
X4.475Y-4.3
X5.125Y-3.675
X5.125Y-4.225
X5.575Y-3.35
X5.575Y-3.925
X5.575Y-4.225
X5.6Y-3.65
X5.65Y-3.3
X5.65Y-3.775
T2
X4.875Y-3.7
X4.875Y-4.
X4.925Y-3.55
X4.975Y-4.05
X5.05Y-3.9
X5.05Y-4.125
X5.25Y-3.025
X5.275Y-2.975
X5.275Y-3.6
X5.4Y-3.6
X5.525Y-3.6
X5.6Y-2.975
X5.6Y-3.075
X5.675Y-3.075
X5.75Y-4.1
X6.Y-4.25
X6.075Y-2.85
T3
X5.15Y-2.85
X5.25Y-2.85
X5.35Y-2.85
X5.45Y-2.85
X5.55Y-2.85
T0
M30
