G04 #@! TF.FileFunction,Legend,Top*
%FSLAX46Y46*%
G04 Gerber Fmt 4.6, Leading zero omitted, Abs format (unit mm)*
G04 Created by KiCad (PCBNEW 4.0.2-stable) date Monday, September 05, 2016 'PMt' 06:21:07 PM*
%MOMM*%
G01*
G04 APERTURE LIST*
%ADD10C,0.100000*%
%ADD11C,0.150000*%
G04 APERTURE END LIST*
D10*
D11*
X138811000Y-108077000D02*
X138811000Y-106553000D01*
X138684000Y-106172000D02*
X138684000Y-108458000D01*
X138557000Y-108712000D02*
X138557000Y-105918000D01*
X138430000Y-105664000D02*
X138430000Y-108966000D01*
X138303000Y-109093000D02*
X138303000Y-105537000D01*
X139192000Y-110617000D02*
X139192000Y-104013000D01*
X139192000Y-104013000D02*
X133350000Y-104013000D01*
X133350000Y-104013000D02*
X132588000Y-104775000D01*
X132588000Y-104775000D02*
X132588000Y-109855000D01*
X132588000Y-109855000D02*
X133350000Y-110617000D01*
X133350000Y-110617000D02*
X139192000Y-110617000D01*
X133731000Y-107315000D02*
X134493000Y-107315000D01*
X134112000Y-107696000D02*
X134112000Y-106934000D01*
X138938000Y-107315000D02*
G75*
G03X138938000Y-107315000I-3048000J0D01*
G01*
X122250000Y-104660000D02*
X119550000Y-104660000D01*
X122250000Y-106160000D02*
X119550000Y-106160000D01*
X120750000Y-105260000D02*
X120750000Y-105510000D01*
X120750000Y-105510000D02*
X120900000Y-105360000D01*
X121000000Y-105760000D02*
X121000000Y-105060000D01*
X120650000Y-105410000D02*
X120300000Y-105410000D01*
X121000000Y-105410000D02*
X120650000Y-105760000D01*
X120650000Y-105760000D02*
X120650000Y-105060000D01*
X120650000Y-105060000D02*
X121000000Y-105410000D01*
X122250000Y-100850000D02*
X119550000Y-100850000D01*
X122250000Y-102350000D02*
X119550000Y-102350000D01*
X120750000Y-101450000D02*
X120750000Y-101700000D01*
X120750000Y-101700000D02*
X120900000Y-101550000D01*
X121000000Y-101950000D02*
X121000000Y-101250000D01*
X120650000Y-101600000D02*
X120300000Y-101600000D01*
X121000000Y-101600000D02*
X120650000Y-101950000D01*
X120650000Y-101950000D02*
X120650000Y-101250000D01*
X120650000Y-101250000D02*
X121000000Y-101600000D01*
X122250000Y-97040000D02*
X119550000Y-97040000D01*
X122250000Y-98540000D02*
X119550000Y-98540000D01*
X120750000Y-97640000D02*
X120750000Y-97890000D01*
X120750000Y-97890000D02*
X120900000Y-97740000D01*
X121000000Y-98140000D02*
X121000000Y-97440000D01*
X120650000Y-97790000D02*
X120300000Y-97790000D01*
X121000000Y-97790000D02*
X120650000Y-98140000D01*
X120650000Y-98140000D02*
X120650000Y-97440000D01*
X120650000Y-97440000D02*
X121000000Y-97790000D01*
X122250000Y-93230000D02*
X119550000Y-93230000D01*
X122250000Y-94730000D02*
X119550000Y-94730000D01*
X120750000Y-93830000D02*
X120750000Y-94080000D01*
X120750000Y-94080000D02*
X120900000Y-93930000D01*
X121000000Y-94330000D02*
X121000000Y-93630000D01*
X120650000Y-93980000D02*
X120300000Y-93980000D01*
X121000000Y-93980000D02*
X120650000Y-94330000D01*
X120650000Y-94330000D02*
X120650000Y-93630000D01*
X120650000Y-93630000D02*
X121000000Y-93980000D01*
X122250000Y-89420000D02*
X119550000Y-89420000D01*
X122250000Y-90920000D02*
X119550000Y-90920000D01*
X120750000Y-90020000D02*
X120750000Y-90270000D01*
X120750000Y-90270000D02*
X120900000Y-90120000D01*
X121000000Y-90520000D02*
X121000000Y-89820000D01*
X120650000Y-90170000D02*
X120300000Y-90170000D01*
X121000000Y-90170000D02*
X120650000Y-90520000D01*
X120650000Y-90520000D02*
X120650000Y-89820000D01*
X120650000Y-89820000D02*
X121000000Y-90170000D01*
X122250000Y-85610000D02*
X119550000Y-85610000D01*
X122250000Y-87110000D02*
X119550000Y-87110000D01*
X120750000Y-86210000D02*
X120750000Y-86460000D01*
X120750000Y-86460000D02*
X120900000Y-86310000D01*
X121000000Y-86710000D02*
X121000000Y-86010000D01*
X120650000Y-86360000D02*
X120300000Y-86360000D01*
X121000000Y-86360000D02*
X120650000Y-86710000D01*
X120650000Y-86710000D02*
X120650000Y-86010000D01*
X120650000Y-86010000D02*
X121000000Y-86360000D01*
X122250000Y-81800000D02*
X119550000Y-81800000D01*
X122250000Y-83300000D02*
X119550000Y-83300000D01*
X120750000Y-82400000D02*
X120750000Y-82650000D01*
X120750000Y-82650000D02*
X120900000Y-82500000D01*
X121000000Y-82900000D02*
X121000000Y-82200000D01*
X120650000Y-82550000D02*
X120300000Y-82550000D01*
X121000000Y-82550000D02*
X120650000Y-82900000D01*
X120650000Y-82900000D02*
X120650000Y-82200000D01*
X120650000Y-82200000D02*
X121000000Y-82550000D01*
X122250000Y-77990000D02*
X119550000Y-77990000D01*
X122250000Y-79490000D02*
X119550000Y-79490000D01*
X120750000Y-78590000D02*
X120750000Y-78840000D01*
X120750000Y-78840000D02*
X120900000Y-78690000D01*
X121000000Y-79090000D02*
X121000000Y-78390000D01*
X120650000Y-78740000D02*
X120300000Y-78740000D01*
X121000000Y-78740000D02*
X120650000Y-79090000D01*
X120650000Y-79090000D02*
X120650000Y-78390000D01*
X120650000Y-78390000D02*
X121000000Y-78740000D01*
X148577500Y-106477500D02*
X151277500Y-106477500D01*
X148577500Y-104977500D02*
X151277500Y-104977500D01*
X150077500Y-105877500D02*
X150077500Y-105627500D01*
X150077500Y-105627500D02*
X149927500Y-105777500D01*
X149827500Y-105377500D02*
X149827500Y-106077500D01*
X150177500Y-105727500D02*
X150527500Y-105727500D01*
X149827500Y-105727500D02*
X150177500Y-105377500D01*
X150177500Y-105377500D02*
X150177500Y-106077500D01*
X150177500Y-106077500D02*
X149827500Y-105727500D01*
X148577500Y-102667500D02*
X151277500Y-102667500D01*
X148577500Y-101167500D02*
X151277500Y-101167500D01*
X150077500Y-102067500D02*
X150077500Y-101817500D01*
X150077500Y-101817500D02*
X149927500Y-101967500D01*
X149827500Y-101567500D02*
X149827500Y-102267500D01*
X150177500Y-101917500D02*
X150527500Y-101917500D01*
X149827500Y-101917500D02*
X150177500Y-101567500D01*
X150177500Y-101567500D02*
X150177500Y-102267500D01*
X150177500Y-102267500D02*
X149827500Y-101917500D01*
X148577500Y-98857500D02*
X151277500Y-98857500D01*
X148577500Y-97357500D02*
X151277500Y-97357500D01*
X150077500Y-98257500D02*
X150077500Y-98007500D01*
X150077500Y-98007500D02*
X149927500Y-98157500D01*
X149827500Y-97757500D02*
X149827500Y-98457500D01*
X150177500Y-98107500D02*
X150527500Y-98107500D01*
X149827500Y-98107500D02*
X150177500Y-97757500D01*
X150177500Y-97757500D02*
X150177500Y-98457500D01*
X150177500Y-98457500D02*
X149827500Y-98107500D01*
X148577500Y-95047500D02*
X151277500Y-95047500D01*
X148577500Y-93547500D02*
X151277500Y-93547500D01*
X150077500Y-94447500D02*
X150077500Y-94197500D01*
X150077500Y-94197500D02*
X149927500Y-94347500D01*
X149827500Y-93947500D02*
X149827500Y-94647500D01*
X150177500Y-94297500D02*
X150527500Y-94297500D01*
X149827500Y-94297500D02*
X150177500Y-93947500D01*
X150177500Y-93947500D02*
X150177500Y-94647500D01*
X150177500Y-94647500D02*
X149827500Y-94297500D01*
X148577500Y-91237500D02*
X151277500Y-91237500D01*
X148577500Y-89737500D02*
X151277500Y-89737500D01*
X150077500Y-90637500D02*
X150077500Y-90387500D01*
X150077500Y-90387500D02*
X149927500Y-90537500D01*
X149827500Y-90137500D02*
X149827500Y-90837500D01*
X150177500Y-90487500D02*
X150527500Y-90487500D01*
X149827500Y-90487500D02*
X150177500Y-90137500D01*
X150177500Y-90137500D02*
X150177500Y-90837500D01*
X150177500Y-90837500D02*
X149827500Y-90487500D01*
X148577500Y-87427500D02*
X151277500Y-87427500D01*
X148577500Y-85927500D02*
X151277500Y-85927500D01*
X150077500Y-86827500D02*
X150077500Y-86577500D01*
X150077500Y-86577500D02*
X149927500Y-86727500D01*
X149827500Y-86327500D02*
X149827500Y-87027500D01*
X150177500Y-86677500D02*
X150527500Y-86677500D01*
X149827500Y-86677500D02*
X150177500Y-86327500D01*
X150177500Y-86327500D02*
X150177500Y-87027500D01*
X150177500Y-87027500D02*
X149827500Y-86677500D01*
X148577500Y-83617500D02*
X151277500Y-83617500D01*
X148577500Y-82117500D02*
X151277500Y-82117500D01*
X150077500Y-83017500D02*
X150077500Y-82767500D01*
X150077500Y-82767500D02*
X149927500Y-82917500D01*
X149827500Y-82517500D02*
X149827500Y-83217500D01*
X150177500Y-82867500D02*
X150527500Y-82867500D01*
X149827500Y-82867500D02*
X150177500Y-82517500D01*
X150177500Y-82517500D02*
X150177500Y-83217500D01*
X150177500Y-83217500D02*
X149827500Y-82867500D01*
X148577500Y-79807500D02*
X151277500Y-79807500D01*
X148577500Y-78307500D02*
X151277500Y-78307500D01*
X150077500Y-79207500D02*
X150077500Y-78957500D01*
X150077500Y-78957500D02*
X149927500Y-79107500D01*
X149827500Y-78707500D02*
X149827500Y-79407500D01*
X150177500Y-79057500D02*
X150527500Y-79057500D01*
X149827500Y-79057500D02*
X150177500Y-78707500D01*
X150177500Y-78707500D02*
X150177500Y-79407500D01*
X150177500Y-79407500D02*
X149827500Y-79057500D01*
X140970000Y-70840000D02*
X142520000Y-70840000D01*
X142520000Y-70840000D02*
X142520000Y-73940000D01*
X142520000Y-73940000D02*
X140970000Y-73940000D01*
X139700000Y-73660000D02*
X129540000Y-73660000D01*
X129540000Y-73660000D02*
X129540000Y-71120000D01*
X129540000Y-71120000D02*
X139700000Y-71120000D01*
X139700000Y-73660000D02*
X139700000Y-71120000D01*
X114335000Y-104535000D02*
X115535000Y-104535000D01*
X115535000Y-106285000D02*
X114335000Y-106285000D01*
X114335000Y-100725000D02*
X115535000Y-100725000D01*
X115535000Y-102475000D02*
X114335000Y-102475000D01*
X114335000Y-96915000D02*
X115535000Y-96915000D01*
X115535000Y-98665000D02*
X114335000Y-98665000D01*
X114335000Y-93105000D02*
X115535000Y-93105000D01*
X115535000Y-94855000D02*
X114335000Y-94855000D01*
X114335000Y-89295000D02*
X115535000Y-89295000D01*
X115535000Y-91045000D02*
X114335000Y-91045000D01*
X114335000Y-85485000D02*
X115535000Y-85485000D01*
X115535000Y-87235000D02*
X114335000Y-87235000D01*
X114335000Y-81675000D02*
X115535000Y-81675000D01*
X115535000Y-83425000D02*
X114335000Y-83425000D01*
X114335000Y-77865000D02*
X115535000Y-77865000D01*
X115535000Y-79615000D02*
X114335000Y-79615000D01*
X156492500Y-106602500D02*
X155292500Y-106602500D01*
X155292500Y-104852500D02*
X156492500Y-104852500D01*
X156492500Y-102792500D02*
X155292500Y-102792500D01*
X155292500Y-101042500D02*
X156492500Y-101042500D01*
X156492500Y-98982500D02*
X155292500Y-98982500D01*
X155292500Y-97232500D02*
X156492500Y-97232500D01*
X156492500Y-95172500D02*
X155292500Y-95172500D01*
X155292500Y-93422500D02*
X156492500Y-93422500D01*
X156492500Y-91362500D02*
X155292500Y-91362500D01*
X155292500Y-89612500D02*
X156492500Y-89612500D01*
X156492500Y-87552500D02*
X155292500Y-87552500D01*
X155292500Y-85802500D02*
X156492500Y-85802500D01*
X156492500Y-83742500D02*
X155292500Y-83742500D01*
X155292500Y-81992500D02*
X156492500Y-81992500D01*
X156492500Y-79932500D02*
X155292500Y-79932500D01*
X155292500Y-78182500D02*
X156492500Y-78182500D01*
X130302000Y-95758000D02*
X131064000Y-95758000D01*
X131064000Y-95758000D02*
X131064000Y-97282000D01*
X131064000Y-97282000D02*
X130302000Y-97282000D01*
X141478000Y-94234000D02*
X141478000Y-98806000D01*
X141478000Y-98806000D02*
X130302000Y-98806000D01*
X130302000Y-98806000D02*
X130302000Y-94234000D01*
X130302000Y-94234000D02*
X141478000Y-94234000D01*
X130302000Y-81153000D02*
X131064000Y-81153000D01*
X131064000Y-81153000D02*
X131064000Y-82677000D01*
X131064000Y-82677000D02*
X130302000Y-82677000D01*
X141478000Y-79629000D02*
X141478000Y-84201000D01*
X141478000Y-84201000D02*
X130302000Y-84201000D01*
X130302000Y-84201000D02*
X130302000Y-79629000D01*
X130302000Y-79629000D02*
X141478000Y-79629000D01*
X135723334Y-112117143D02*
X135675715Y-112164762D01*
X135532858Y-112212381D01*
X135437620Y-112212381D01*
X135294762Y-112164762D01*
X135199524Y-112069524D01*
X135151905Y-111974286D01*
X135104286Y-111783810D01*
X135104286Y-111640952D01*
X135151905Y-111450476D01*
X135199524Y-111355238D01*
X135294762Y-111260000D01*
X135437620Y-111212381D01*
X135532858Y-111212381D01*
X135675715Y-111260000D01*
X135723334Y-111307619D01*
X136675715Y-112212381D02*
X136104286Y-112212381D01*
X136390000Y-112212381D02*
X136390000Y-111212381D01*
X136294762Y-111355238D01*
X136199524Y-111450476D01*
X136104286Y-111498095D01*
X119911905Y-107612381D02*
X119911905Y-106612381D01*
X120150000Y-106612381D01*
X120292858Y-106660000D01*
X120388096Y-106755238D01*
X120435715Y-106850476D01*
X120483334Y-107040952D01*
X120483334Y-107183810D01*
X120435715Y-107374286D01*
X120388096Y-107469524D01*
X120292858Y-107564762D01*
X120150000Y-107612381D01*
X119911905Y-107612381D01*
X121435715Y-107612381D02*
X120864286Y-107612381D01*
X121150000Y-107612381D02*
X121150000Y-106612381D01*
X121054762Y-106755238D01*
X120959524Y-106850476D01*
X120864286Y-106898095D01*
X119911905Y-103802381D02*
X119911905Y-102802381D01*
X120150000Y-102802381D01*
X120292858Y-102850000D01*
X120388096Y-102945238D01*
X120435715Y-103040476D01*
X120483334Y-103230952D01*
X120483334Y-103373810D01*
X120435715Y-103564286D01*
X120388096Y-103659524D01*
X120292858Y-103754762D01*
X120150000Y-103802381D01*
X119911905Y-103802381D01*
X120864286Y-102897619D02*
X120911905Y-102850000D01*
X121007143Y-102802381D01*
X121245239Y-102802381D01*
X121340477Y-102850000D01*
X121388096Y-102897619D01*
X121435715Y-102992857D01*
X121435715Y-103088095D01*
X121388096Y-103230952D01*
X120816667Y-103802381D01*
X121435715Y-103802381D01*
X119911905Y-99992381D02*
X119911905Y-98992381D01*
X120150000Y-98992381D01*
X120292858Y-99040000D01*
X120388096Y-99135238D01*
X120435715Y-99230476D01*
X120483334Y-99420952D01*
X120483334Y-99563810D01*
X120435715Y-99754286D01*
X120388096Y-99849524D01*
X120292858Y-99944762D01*
X120150000Y-99992381D01*
X119911905Y-99992381D01*
X120816667Y-98992381D02*
X121435715Y-98992381D01*
X121102381Y-99373333D01*
X121245239Y-99373333D01*
X121340477Y-99420952D01*
X121388096Y-99468571D01*
X121435715Y-99563810D01*
X121435715Y-99801905D01*
X121388096Y-99897143D01*
X121340477Y-99944762D01*
X121245239Y-99992381D01*
X120959524Y-99992381D01*
X120864286Y-99944762D01*
X120816667Y-99897143D01*
X119911905Y-96182381D02*
X119911905Y-95182381D01*
X120150000Y-95182381D01*
X120292858Y-95230000D01*
X120388096Y-95325238D01*
X120435715Y-95420476D01*
X120483334Y-95610952D01*
X120483334Y-95753810D01*
X120435715Y-95944286D01*
X120388096Y-96039524D01*
X120292858Y-96134762D01*
X120150000Y-96182381D01*
X119911905Y-96182381D01*
X121340477Y-95515714D02*
X121340477Y-96182381D01*
X121102381Y-95134762D02*
X120864286Y-95849048D01*
X121483334Y-95849048D01*
X119911905Y-92372381D02*
X119911905Y-91372381D01*
X120150000Y-91372381D01*
X120292858Y-91420000D01*
X120388096Y-91515238D01*
X120435715Y-91610476D01*
X120483334Y-91800952D01*
X120483334Y-91943810D01*
X120435715Y-92134286D01*
X120388096Y-92229524D01*
X120292858Y-92324762D01*
X120150000Y-92372381D01*
X119911905Y-92372381D01*
X121388096Y-91372381D02*
X120911905Y-91372381D01*
X120864286Y-91848571D01*
X120911905Y-91800952D01*
X121007143Y-91753333D01*
X121245239Y-91753333D01*
X121340477Y-91800952D01*
X121388096Y-91848571D01*
X121435715Y-91943810D01*
X121435715Y-92181905D01*
X121388096Y-92277143D01*
X121340477Y-92324762D01*
X121245239Y-92372381D01*
X121007143Y-92372381D01*
X120911905Y-92324762D01*
X120864286Y-92277143D01*
X119911905Y-88562381D02*
X119911905Y-87562381D01*
X120150000Y-87562381D01*
X120292858Y-87610000D01*
X120388096Y-87705238D01*
X120435715Y-87800476D01*
X120483334Y-87990952D01*
X120483334Y-88133810D01*
X120435715Y-88324286D01*
X120388096Y-88419524D01*
X120292858Y-88514762D01*
X120150000Y-88562381D01*
X119911905Y-88562381D01*
X121340477Y-87562381D02*
X121150000Y-87562381D01*
X121054762Y-87610000D01*
X121007143Y-87657619D01*
X120911905Y-87800476D01*
X120864286Y-87990952D01*
X120864286Y-88371905D01*
X120911905Y-88467143D01*
X120959524Y-88514762D01*
X121054762Y-88562381D01*
X121245239Y-88562381D01*
X121340477Y-88514762D01*
X121388096Y-88467143D01*
X121435715Y-88371905D01*
X121435715Y-88133810D01*
X121388096Y-88038571D01*
X121340477Y-87990952D01*
X121245239Y-87943333D01*
X121054762Y-87943333D01*
X120959524Y-87990952D01*
X120911905Y-88038571D01*
X120864286Y-88133810D01*
X119911905Y-84752381D02*
X119911905Y-83752381D01*
X120150000Y-83752381D01*
X120292858Y-83800000D01*
X120388096Y-83895238D01*
X120435715Y-83990476D01*
X120483334Y-84180952D01*
X120483334Y-84323810D01*
X120435715Y-84514286D01*
X120388096Y-84609524D01*
X120292858Y-84704762D01*
X120150000Y-84752381D01*
X119911905Y-84752381D01*
X120816667Y-83752381D02*
X121483334Y-83752381D01*
X121054762Y-84752381D01*
X119911905Y-80942381D02*
X119911905Y-79942381D01*
X120150000Y-79942381D01*
X120292858Y-79990000D01*
X120388096Y-80085238D01*
X120435715Y-80180476D01*
X120483334Y-80370952D01*
X120483334Y-80513810D01*
X120435715Y-80704286D01*
X120388096Y-80799524D01*
X120292858Y-80894762D01*
X120150000Y-80942381D01*
X119911905Y-80942381D01*
X121054762Y-80370952D02*
X120959524Y-80323333D01*
X120911905Y-80275714D01*
X120864286Y-80180476D01*
X120864286Y-80132857D01*
X120911905Y-80037619D01*
X120959524Y-79990000D01*
X121054762Y-79942381D01*
X121245239Y-79942381D01*
X121340477Y-79990000D01*
X121388096Y-80037619D01*
X121435715Y-80132857D01*
X121435715Y-80180476D01*
X121388096Y-80275714D01*
X121340477Y-80323333D01*
X121245239Y-80370952D01*
X121054762Y-80370952D01*
X120959524Y-80418571D01*
X120911905Y-80466190D01*
X120864286Y-80561429D01*
X120864286Y-80751905D01*
X120911905Y-80847143D01*
X120959524Y-80894762D01*
X121054762Y-80942381D01*
X121245239Y-80942381D01*
X121340477Y-80894762D01*
X121388096Y-80847143D01*
X121435715Y-80751905D01*
X121435715Y-80561429D01*
X121388096Y-80466190D01*
X121340477Y-80418571D01*
X121245239Y-80370952D01*
X149439405Y-104429881D02*
X149439405Y-103429881D01*
X149677500Y-103429881D01*
X149820358Y-103477500D01*
X149915596Y-103572738D01*
X149963215Y-103667976D01*
X150010834Y-103858452D01*
X150010834Y-104001310D01*
X149963215Y-104191786D01*
X149915596Y-104287024D01*
X149820358Y-104382262D01*
X149677500Y-104429881D01*
X149439405Y-104429881D01*
X150487024Y-104429881D02*
X150677500Y-104429881D01*
X150772739Y-104382262D01*
X150820358Y-104334643D01*
X150915596Y-104191786D01*
X150963215Y-104001310D01*
X150963215Y-103620357D01*
X150915596Y-103525119D01*
X150867977Y-103477500D01*
X150772739Y-103429881D01*
X150582262Y-103429881D01*
X150487024Y-103477500D01*
X150439405Y-103525119D01*
X150391786Y-103620357D01*
X150391786Y-103858452D01*
X150439405Y-103953690D01*
X150487024Y-104001310D01*
X150582262Y-104048929D01*
X150772739Y-104048929D01*
X150867977Y-104001310D01*
X150915596Y-103953690D01*
X150963215Y-103858452D01*
X148963214Y-100619881D02*
X148963214Y-99619881D01*
X149201309Y-99619881D01*
X149344167Y-99667500D01*
X149439405Y-99762738D01*
X149487024Y-99857976D01*
X149534643Y-100048452D01*
X149534643Y-100191310D01*
X149487024Y-100381786D01*
X149439405Y-100477024D01*
X149344167Y-100572262D01*
X149201309Y-100619881D01*
X148963214Y-100619881D01*
X150487024Y-100619881D02*
X149915595Y-100619881D01*
X150201309Y-100619881D02*
X150201309Y-99619881D01*
X150106071Y-99762738D01*
X150010833Y-99857976D01*
X149915595Y-99905595D01*
X151106071Y-99619881D02*
X151201310Y-99619881D01*
X151296548Y-99667500D01*
X151344167Y-99715119D01*
X151391786Y-99810357D01*
X151439405Y-100000833D01*
X151439405Y-100238929D01*
X151391786Y-100429405D01*
X151344167Y-100524643D01*
X151296548Y-100572262D01*
X151201310Y-100619881D01*
X151106071Y-100619881D01*
X151010833Y-100572262D01*
X150963214Y-100524643D01*
X150915595Y-100429405D01*
X150867976Y-100238929D01*
X150867976Y-100000833D01*
X150915595Y-99810357D01*
X150963214Y-99715119D01*
X151010833Y-99667500D01*
X151106071Y-99619881D01*
X148963214Y-96809881D02*
X148963214Y-95809881D01*
X149201309Y-95809881D01*
X149344167Y-95857500D01*
X149439405Y-95952738D01*
X149487024Y-96047976D01*
X149534643Y-96238452D01*
X149534643Y-96381310D01*
X149487024Y-96571786D01*
X149439405Y-96667024D01*
X149344167Y-96762262D01*
X149201309Y-96809881D01*
X148963214Y-96809881D01*
X150487024Y-96809881D02*
X149915595Y-96809881D01*
X150201309Y-96809881D02*
X150201309Y-95809881D01*
X150106071Y-95952738D01*
X150010833Y-96047976D01*
X149915595Y-96095595D01*
X151439405Y-96809881D02*
X150867976Y-96809881D01*
X151153690Y-96809881D02*
X151153690Y-95809881D01*
X151058452Y-95952738D01*
X150963214Y-96047976D01*
X150867976Y-96095595D01*
X148963214Y-92999881D02*
X148963214Y-91999881D01*
X149201309Y-91999881D01*
X149344167Y-92047500D01*
X149439405Y-92142738D01*
X149487024Y-92237976D01*
X149534643Y-92428452D01*
X149534643Y-92571310D01*
X149487024Y-92761786D01*
X149439405Y-92857024D01*
X149344167Y-92952262D01*
X149201309Y-92999881D01*
X148963214Y-92999881D01*
X150487024Y-92999881D02*
X149915595Y-92999881D01*
X150201309Y-92999881D02*
X150201309Y-91999881D01*
X150106071Y-92142738D01*
X150010833Y-92237976D01*
X149915595Y-92285595D01*
X150867976Y-92095119D02*
X150915595Y-92047500D01*
X151010833Y-91999881D01*
X151248929Y-91999881D01*
X151344167Y-92047500D01*
X151391786Y-92095119D01*
X151439405Y-92190357D01*
X151439405Y-92285595D01*
X151391786Y-92428452D01*
X150820357Y-92999881D01*
X151439405Y-92999881D01*
X148963214Y-89189881D02*
X148963214Y-88189881D01*
X149201309Y-88189881D01*
X149344167Y-88237500D01*
X149439405Y-88332738D01*
X149487024Y-88427976D01*
X149534643Y-88618452D01*
X149534643Y-88761310D01*
X149487024Y-88951786D01*
X149439405Y-89047024D01*
X149344167Y-89142262D01*
X149201309Y-89189881D01*
X148963214Y-89189881D01*
X150487024Y-89189881D02*
X149915595Y-89189881D01*
X150201309Y-89189881D02*
X150201309Y-88189881D01*
X150106071Y-88332738D01*
X150010833Y-88427976D01*
X149915595Y-88475595D01*
X150820357Y-88189881D02*
X151439405Y-88189881D01*
X151106071Y-88570833D01*
X151248929Y-88570833D01*
X151344167Y-88618452D01*
X151391786Y-88666071D01*
X151439405Y-88761310D01*
X151439405Y-88999405D01*
X151391786Y-89094643D01*
X151344167Y-89142262D01*
X151248929Y-89189881D01*
X150963214Y-89189881D01*
X150867976Y-89142262D01*
X150820357Y-89094643D01*
X148963214Y-85379881D02*
X148963214Y-84379881D01*
X149201309Y-84379881D01*
X149344167Y-84427500D01*
X149439405Y-84522738D01*
X149487024Y-84617976D01*
X149534643Y-84808452D01*
X149534643Y-84951310D01*
X149487024Y-85141786D01*
X149439405Y-85237024D01*
X149344167Y-85332262D01*
X149201309Y-85379881D01*
X148963214Y-85379881D01*
X150487024Y-85379881D02*
X149915595Y-85379881D01*
X150201309Y-85379881D02*
X150201309Y-84379881D01*
X150106071Y-84522738D01*
X150010833Y-84617976D01*
X149915595Y-84665595D01*
X151344167Y-84713214D02*
X151344167Y-85379881D01*
X151106071Y-84332262D02*
X150867976Y-85046548D01*
X151487024Y-85046548D01*
X148963214Y-81569881D02*
X148963214Y-80569881D01*
X149201309Y-80569881D01*
X149344167Y-80617500D01*
X149439405Y-80712738D01*
X149487024Y-80807976D01*
X149534643Y-80998452D01*
X149534643Y-81141310D01*
X149487024Y-81331786D01*
X149439405Y-81427024D01*
X149344167Y-81522262D01*
X149201309Y-81569881D01*
X148963214Y-81569881D01*
X150487024Y-81569881D02*
X149915595Y-81569881D01*
X150201309Y-81569881D02*
X150201309Y-80569881D01*
X150106071Y-80712738D01*
X150010833Y-80807976D01*
X149915595Y-80855595D01*
X151391786Y-80569881D02*
X150915595Y-80569881D01*
X150867976Y-81046071D01*
X150915595Y-80998452D01*
X151010833Y-80950833D01*
X151248929Y-80950833D01*
X151344167Y-80998452D01*
X151391786Y-81046071D01*
X151439405Y-81141310D01*
X151439405Y-81379405D01*
X151391786Y-81474643D01*
X151344167Y-81522262D01*
X151248929Y-81569881D01*
X151010833Y-81569881D01*
X150915595Y-81522262D01*
X150867976Y-81474643D01*
X148963214Y-77759881D02*
X148963214Y-76759881D01*
X149201309Y-76759881D01*
X149344167Y-76807500D01*
X149439405Y-76902738D01*
X149487024Y-76997976D01*
X149534643Y-77188452D01*
X149534643Y-77331310D01*
X149487024Y-77521786D01*
X149439405Y-77617024D01*
X149344167Y-77712262D01*
X149201309Y-77759881D01*
X148963214Y-77759881D01*
X150487024Y-77759881D02*
X149915595Y-77759881D01*
X150201309Y-77759881D02*
X150201309Y-76759881D01*
X150106071Y-76902738D01*
X150010833Y-76997976D01*
X149915595Y-77045595D01*
X151344167Y-76759881D02*
X151153690Y-76759881D01*
X151058452Y-76807500D01*
X151010833Y-76855119D01*
X150915595Y-76997976D01*
X150867976Y-77188452D01*
X150867976Y-77569405D01*
X150915595Y-77664643D01*
X150963214Y-77712262D01*
X151058452Y-77759881D01*
X151248929Y-77759881D01*
X151344167Y-77712262D01*
X151391786Y-77664643D01*
X151439405Y-77569405D01*
X151439405Y-77331310D01*
X151391786Y-77236071D01*
X151344167Y-77188452D01*
X151248929Y-77140833D01*
X151058452Y-77140833D01*
X150963214Y-77188452D01*
X150915595Y-77236071D01*
X150867976Y-77331310D01*
X146522381Y-73128095D02*
X145522381Y-73128095D01*
X145522381Y-72747142D01*
X145570000Y-72651904D01*
X145617619Y-72604285D01*
X145712857Y-72556666D01*
X145855714Y-72556666D01*
X145950952Y-72604285D01*
X145998571Y-72651904D01*
X146046190Y-72747142D01*
X146046190Y-73128095D01*
X146522381Y-71604285D02*
X146522381Y-72175714D01*
X146522381Y-71890000D02*
X145522381Y-71890000D01*
X145665238Y-71985238D01*
X145760476Y-72080476D01*
X145808095Y-72175714D01*
X114768334Y-107962381D02*
X114435000Y-107486190D01*
X114196905Y-107962381D02*
X114196905Y-106962381D01*
X114577858Y-106962381D01*
X114673096Y-107010000D01*
X114720715Y-107057619D01*
X114768334Y-107152857D01*
X114768334Y-107295714D01*
X114720715Y-107390952D01*
X114673096Y-107438571D01*
X114577858Y-107486190D01*
X114196905Y-107486190D01*
X115720715Y-107962381D02*
X115149286Y-107962381D01*
X115435000Y-107962381D02*
X115435000Y-106962381D01*
X115339762Y-107105238D01*
X115244524Y-107200476D01*
X115149286Y-107248095D01*
X114768334Y-104152381D02*
X114435000Y-103676190D01*
X114196905Y-104152381D02*
X114196905Y-103152381D01*
X114577858Y-103152381D01*
X114673096Y-103200000D01*
X114720715Y-103247619D01*
X114768334Y-103342857D01*
X114768334Y-103485714D01*
X114720715Y-103580952D01*
X114673096Y-103628571D01*
X114577858Y-103676190D01*
X114196905Y-103676190D01*
X115149286Y-103247619D02*
X115196905Y-103200000D01*
X115292143Y-103152381D01*
X115530239Y-103152381D01*
X115625477Y-103200000D01*
X115673096Y-103247619D01*
X115720715Y-103342857D01*
X115720715Y-103438095D01*
X115673096Y-103580952D01*
X115101667Y-104152381D01*
X115720715Y-104152381D01*
X114768334Y-100342381D02*
X114435000Y-99866190D01*
X114196905Y-100342381D02*
X114196905Y-99342381D01*
X114577858Y-99342381D01*
X114673096Y-99390000D01*
X114720715Y-99437619D01*
X114768334Y-99532857D01*
X114768334Y-99675714D01*
X114720715Y-99770952D01*
X114673096Y-99818571D01*
X114577858Y-99866190D01*
X114196905Y-99866190D01*
X115101667Y-99342381D02*
X115720715Y-99342381D01*
X115387381Y-99723333D01*
X115530239Y-99723333D01*
X115625477Y-99770952D01*
X115673096Y-99818571D01*
X115720715Y-99913810D01*
X115720715Y-100151905D01*
X115673096Y-100247143D01*
X115625477Y-100294762D01*
X115530239Y-100342381D01*
X115244524Y-100342381D01*
X115149286Y-100294762D01*
X115101667Y-100247143D01*
X114768334Y-96532381D02*
X114435000Y-96056190D01*
X114196905Y-96532381D02*
X114196905Y-95532381D01*
X114577858Y-95532381D01*
X114673096Y-95580000D01*
X114720715Y-95627619D01*
X114768334Y-95722857D01*
X114768334Y-95865714D01*
X114720715Y-95960952D01*
X114673096Y-96008571D01*
X114577858Y-96056190D01*
X114196905Y-96056190D01*
X115625477Y-95865714D02*
X115625477Y-96532381D01*
X115387381Y-95484762D02*
X115149286Y-96199048D01*
X115768334Y-96199048D01*
X114768334Y-92722381D02*
X114435000Y-92246190D01*
X114196905Y-92722381D02*
X114196905Y-91722381D01*
X114577858Y-91722381D01*
X114673096Y-91770000D01*
X114720715Y-91817619D01*
X114768334Y-91912857D01*
X114768334Y-92055714D01*
X114720715Y-92150952D01*
X114673096Y-92198571D01*
X114577858Y-92246190D01*
X114196905Y-92246190D01*
X115673096Y-91722381D02*
X115196905Y-91722381D01*
X115149286Y-92198571D01*
X115196905Y-92150952D01*
X115292143Y-92103333D01*
X115530239Y-92103333D01*
X115625477Y-92150952D01*
X115673096Y-92198571D01*
X115720715Y-92293810D01*
X115720715Y-92531905D01*
X115673096Y-92627143D01*
X115625477Y-92674762D01*
X115530239Y-92722381D01*
X115292143Y-92722381D01*
X115196905Y-92674762D01*
X115149286Y-92627143D01*
X114768334Y-88912381D02*
X114435000Y-88436190D01*
X114196905Y-88912381D02*
X114196905Y-87912381D01*
X114577858Y-87912381D01*
X114673096Y-87960000D01*
X114720715Y-88007619D01*
X114768334Y-88102857D01*
X114768334Y-88245714D01*
X114720715Y-88340952D01*
X114673096Y-88388571D01*
X114577858Y-88436190D01*
X114196905Y-88436190D01*
X115625477Y-87912381D02*
X115435000Y-87912381D01*
X115339762Y-87960000D01*
X115292143Y-88007619D01*
X115196905Y-88150476D01*
X115149286Y-88340952D01*
X115149286Y-88721905D01*
X115196905Y-88817143D01*
X115244524Y-88864762D01*
X115339762Y-88912381D01*
X115530239Y-88912381D01*
X115625477Y-88864762D01*
X115673096Y-88817143D01*
X115720715Y-88721905D01*
X115720715Y-88483810D01*
X115673096Y-88388571D01*
X115625477Y-88340952D01*
X115530239Y-88293333D01*
X115339762Y-88293333D01*
X115244524Y-88340952D01*
X115196905Y-88388571D01*
X115149286Y-88483810D01*
X114768334Y-85102381D02*
X114435000Y-84626190D01*
X114196905Y-85102381D02*
X114196905Y-84102381D01*
X114577858Y-84102381D01*
X114673096Y-84150000D01*
X114720715Y-84197619D01*
X114768334Y-84292857D01*
X114768334Y-84435714D01*
X114720715Y-84530952D01*
X114673096Y-84578571D01*
X114577858Y-84626190D01*
X114196905Y-84626190D01*
X115101667Y-84102381D02*
X115768334Y-84102381D01*
X115339762Y-85102381D01*
X114768334Y-81292381D02*
X114435000Y-80816190D01*
X114196905Y-81292381D02*
X114196905Y-80292381D01*
X114577858Y-80292381D01*
X114673096Y-80340000D01*
X114720715Y-80387619D01*
X114768334Y-80482857D01*
X114768334Y-80625714D01*
X114720715Y-80720952D01*
X114673096Y-80768571D01*
X114577858Y-80816190D01*
X114196905Y-80816190D01*
X115339762Y-80720952D02*
X115244524Y-80673333D01*
X115196905Y-80625714D01*
X115149286Y-80530476D01*
X115149286Y-80482857D01*
X115196905Y-80387619D01*
X115244524Y-80340000D01*
X115339762Y-80292381D01*
X115530239Y-80292381D01*
X115625477Y-80340000D01*
X115673096Y-80387619D01*
X115720715Y-80482857D01*
X115720715Y-80530476D01*
X115673096Y-80625714D01*
X115625477Y-80673333D01*
X115530239Y-80720952D01*
X115339762Y-80720952D01*
X115244524Y-80768571D01*
X115196905Y-80816190D01*
X115149286Y-80911429D01*
X115149286Y-81101905D01*
X115196905Y-81197143D01*
X115244524Y-81244762D01*
X115339762Y-81292381D01*
X115530239Y-81292381D01*
X115625477Y-81244762D01*
X115673096Y-81197143D01*
X115720715Y-81101905D01*
X115720715Y-80911429D01*
X115673096Y-80816190D01*
X115625477Y-80768571D01*
X115530239Y-80720952D01*
X155725834Y-104079881D02*
X155392500Y-103603690D01*
X155154405Y-104079881D02*
X155154405Y-103079881D01*
X155535358Y-103079881D01*
X155630596Y-103127500D01*
X155678215Y-103175119D01*
X155725834Y-103270357D01*
X155725834Y-103413214D01*
X155678215Y-103508452D01*
X155630596Y-103556071D01*
X155535358Y-103603690D01*
X155154405Y-103603690D01*
X156202024Y-104079881D02*
X156392500Y-104079881D01*
X156487739Y-104032262D01*
X156535358Y-103984643D01*
X156630596Y-103841786D01*
X156678215Y-103651310D01*
X156678215Y-103270357D01*
X156630596Y-103175119D01*
X156582977Y-103127500D01*
X156487739Y-103079881D01*
X156297262Y-103079881D01*
X156202024Y-103127500D01*
X156154405Y-103175119D01*
X156106786Y-103270357D01*
X156106786Y-103508452D01*
X156154405Y-103603690D01*
X156202024Y-103651310D01*
X156297262Y-103698929D01*
X156487739Y-103698929D01*
X156582977Y-103651310D01*
X156630596Y-103603690D01*
X156678215Y-103508452D01*
X155249643Y-100269881D02*
X154916309Y-99793690D01*
X154678214Y-100269881D02*
X154678214Y-99269881D01*
X155059167Y-99269881D01*
X155154405Y-99317500D01*
X155202024Y-99365119D01*
X155249643Y-99460357D01*
X155249643Y-99603214D01*
X155202024Y-99698452D01*
X155154405Y-99746071D01*
X155059167Y-99793690D01*
X154678214Y-99793690D01*
X156202024Y-100269881D02*
X155630595Y-100269881D01*
X155916309Y-100269881D02*
X155916309Y-99269881D01*
X155821071Y-99412738D01*
X155725833Y-99507976D01*
X155630595Y-99555595D01*
X156821071Y-99269881D02*
X156916310Y-99269881D01*
X157011548Y-99317500D01*
X157059167Y-99365119D01*
X157106786Y-99460357D01*
X157154405Y-99650833D01*
X157154405Y-99888929D01*
X157106786Y-100079405D01*
X157059167Y-100174643D01*
X157011548Y-100222262D01*
X156916310Y-100269881D01*
X156821071Y-100269881D01*
X156725833Y-100222262D01*
X156678214Y-100174643D01*
X156630595Y-100079405D01*
X156582976Y-99888929D01*
X156582976Y-99650833D01*
X156630595Y-99460357D01*
X156678214Y-99365119D01*
X156725833Y-99317500D01*
X156821071Y-99269881D01*
X155249643Y-96459881D02*
X154916309Y-95983690D01*
X154678214Y-96459881D02*
X154678214Y-95459881D01*
X155059167Y-95459881D01*
X155154405Y-95507500D01*
X155202024Y-95555119D01*
X155249643Y-95650357D01*
X155249643Y-95793214D01*
X155202024Y-95888452D01*
X155154405Y-95936071D01*
X155059167Y-95983690D01*
X154678214Y-95983690D01*
X156202024Y-96459881D02*
X155630595Y-96459881D01*
X155916309Y-96459881D02*
X155916309Y-95459881D01*
X155821071Y-95602738D01*
X155725833Y-95697976D01*
X155630595Y-95745595D01*
X157154405Y-96459881D02*
X156582976Y-96459881D01*
X156868690Y-96459881D02*
X156868690Y-95459881D01*
X156773452Y-95602738D01*
X156678214Y-95697976D01*
X156582976Y-95745595D01*
X155249643Y-92649881D02*
X154916309Y-92173690D01*
X154678214Y-92649881D02*
X154678214Y-91649881D01*
X155059167Y-91649881D01*
X155154405Y-91697500D01*
X155202024Y-91745119D01*
X155249643Y-91840357D01*
X155249643Y-91983214D01*
X155202024Y-92078452D01*
X155154405Y-92126071D01*
X155059167Y-92173690D01*
X154678214Y-92173690D01*
X156202024Y-92649881D02*
X155630595Y-92649881D01*
X155916309Y-92649881D02*
X155916309Y-91649881D01*
X155821071Y-91792738D01*
X155725833Y-91887976D01*
X155630595Y-91935595D01*
X156582976Y-91745119D02*
X156630595Y-91697500D01*
X156725833Y-91649881D01*
X156963929Y-91649881D01*
X157059167Y-91697500D01*
X157106786Y-91745119D01*
X157154405Y-91840357D01*
X157154405Y-91935595D01*
X157106786Y-92078452D01*
X156535357Y-92649881D01*
X157154405Y-92649881D01*
X155249643Y-88839881D02*
X154916309Y-88363690D01*
X154678214Y-88839881D02*
X154678214Y-87839881D01*
X155059167Y-87839881D01*
X155154405Y-87887500D01*
X155202024Y-87935119D01*
X155249643Y-88030357D01*
X155249643Y-88173214D01*
X155202024Y-88268452D01*
X155154405Y-88316071D01*
X155059167Y-88363690D01*
X154678214Y-88363690D01*
X156202024Y-88839881D02*
X155630595Y-88839881D01*
X155916309Y-88839881D02*
X155916309Y-87839881D01*
X155821071Y-87982738D01*
X155725833Y-88077976D01*
X155630595Y-88125595D01*
X156535357Y-87839881D02*
X157154405Y-87839881D01*
X156821071Y-88220833D01*
X156963929Y-88220833D01*
X157059167Y-88268452D01*
X157106786Y-88316071D01*
X157154405Y-88411310D01*
X157154405Y-88649405D01*
X157106786Y-88744643D01*
X157059167Y-88792262D01*
X156963929Y-88839881D01*
X156678214Y-88839881D01*
X156582976Y-88792262D01*
X156535357Y-88744643D01*
X155249643Y-85029881D02*
X154916309Y-84553690D01*
X154678214Y-85029881D02*
X154678214Y-84029881D01*
X155059167Y-84029881D01*
X155154405Y-84077500D01*
X155202024Y-84125119D01*
X155249643Y-84220357D01*
X155249643Y-84363214D01*
X155202024Y-84458452D01*
X155154405Y-84506071D01*
X155059167Y-84553690D01*
X154678214Y-84553690D01*
X156202024Y-85029881D02*
X155630595Y-85029881D01*
X155916309Y-85029881D02*
X155916309Y-84029881D01*
X155821071Y-84172738D01*
X155725833Y-84267976D01*
X155630595Y-84315595D01*
X157059167Y-84363214D02*
X157059167Y-85029881D01*
X156821071Y-83982262D02*
X156582976Y-84696548D01*
X157202024Y-84696548D01*
X155249643Y-81219881D02*
X154916309Y-80743690D01*
X154678214Y-81219881D02*
X154678214Y-80219881D01*
X155059167Y-80219881D01*
X155154405Y-80267500D01*
X155202024Y-80315119D01*
X155249643Y-80410357D01*
X155249643Y-80553214D01*
X155202024Y-80648452D01*
X155154405Y-80696071D01*
X155059167Y-80743690D01*
X154678214Y-80743690D01*
X156202024Y-81219881D02*
X155630595Y-81219881D01*
X155916309Y-81219881D02*
X155916309Y-80219881D01*
X155821071Y-80362738D01*
X155725833Y-80457976D01*
X155630595Y-80505595D01*
X157106786Y-80219881D02*
X156630595Y-80219881D01*
X156582976Y-80696071D01*
X156630595Y-80648452D01*
X156725833Y-80600833D01*
X156963929Y-80600833D01*
X157059167Y-80648452D01*
X157106786Y-80696071D01*
X157154405Y-80791310D01*
X157154405Y-81029405D01*
X157106786Y-81124643D01*
X157059167Y-81172262D01*
X156963929Y-81219881D01*
X156725833Y-81219881D01*
X156630595Y-81172262D01*
X156582976Y-81124643D01*
X155249643Y-77409881D02*
X154916309Y-76933690D01*
X154678214Y-77409881D02*
X154678214Y-76409881D01*
X155059167Y-76409881D01*
X155154405Y-76457500D01*
X155202024Y-76505119D01*
X155249643Y-76600357D01*
X155249643Y-76743214D01*
X155202024Y-76838452D01*
X155154405Y-76886071D01*
X155059167Y-76933690D01*
X154678214Y-76933690D01*
X156202024Y-77409881D02*
X155630595Y-77409881D01*
X155916309Y-77409881D02*
X155916309Y-76409881D01*
X155821071Y-76552738D01*
X155725833Y-76647976D01*
X155630595Y-76695595D01*
X157059167Y-76409881D02*
X156868690Y-76409881D01*
X156773452Y-76457500D01*
X156725833Y-76505119D01*
X156630595Y-76647976D01*
X156582976Y-76838452D01*
X156582976Y-77219405D01*
X156630595Y-77314643D01*
X156678214Y-77362262D01*
X156773452Y-77409881D01*
X156963929Y-77409881D01*
X157059167Y-77362262D01*
X157106786Y-77314643D01*
X157154405Y-77219405D01*
X157154405Y-76981310D01*
X157106786Y-76886071D01*
X157059167Y-76838452D01*
X156963929Y-76790833D01*
X156773452Y-76790833D01*
X156678214Y-76838452D01*
X156630595Y-76886071D01*
X156582976Y-76981310D01*
X135469381Y-96011905D02*
X136278905Y-96011905D01*
X136374143Y-95964286D01*
X136421762Y-95916667D01*
X136469381Y-95821429D01*
X136469381Y-95630952D01*
X136421762Y-95535714D01*
X136374143Y-95488095D01*
X136278905Y-95440476D01*
X135469381Y-95440476D01*
X136469381Y-94440476D02*
X136469381Y-95011905D01*
X136469381Y-94726191D02*
X135469381Y-94726191D01*
X135612238Y-94821429D01*
X135707476Y-94916667D01*
X135755095Y-95011905D01*
X135255095Y-80097381D02*
X135255095Y-80906905D01*
X135302714Y-81002143D01*
X135350333Y-81049762D01*
X135445571Y-81097381D01*
X135636048Y-81097381D01*
X135731286Y-81049762D01*
X135778905Y-81002143D01*
X135826524Y-80906905D01*
X135826524Y-80097381D01*
X136255095Y-80192619D02*
X136302714Y-80145000D01*
X136397952Y-80097381D01*
X136636048Y-80097381D01*
X136731286Y-80145000D01*
X136778905Y-80192619D01*
X136826524Y-80287857D01*
X136826524Y-80383095D01*
X136778905Y-80525952D01*
X136207476Y-81097381D01*
X136826524Y-81097381D01*
M02*
