G04 #@! TF.FileFunction,Soldermask,Top*
%FSLAX46Y46*%
G04 Gerber Fmt 4.6, Leading zero omitted, Abs format (unit mm)*
G04 Created by KiCad (PCBNEW 4.0.2-stable) date Monday, September 05, 2016 'PMt' 06:21:07 PM*
%MOMM*%
G01*
G04 APERTURE LIST*
%ADD10C,0.100000*%
%ADD11R,3.999180X2.000200*%
%ADD12R,1.598880X1.598880*%
%ADD13R,2.127200X2.432000*%
%ADD14O,2.127200X2.432000*%
%ADD15R,1.900000X1.700000*%
%ADD16R,0.908000X1.543000*%
G04 APERTURE END LIST*
D10*
D11*
X133139180Y-107315000D03*
X138640820Y-107315000D03*
D12*
X119600980Y-105410000D03*
X121699020Y-105410000D03*
X119600980Y-101600000D03*
X121699020Y-101600000D03*
X119600980Y-97790000D03*
X121699020Y-97790000D03*
X119600980Y-93980000D03*
X121699020Y-93980000D03*
X119600980Y-90170000D03*
X121699020Y-90170000D03*
X119600980Y-86360000D03*
X121699020Y-86360000D03*
X119600980Y-82550000D03*
X121699020Y-82550000D03*
X119600980Y-78740000D03*
X121699020Y-78740000D03*
X151226520Y-105727500D03*
X149128480Y-105727500D03*
X151226520Y-101917500D03*
X149128480Y-101917500D03*
X151226520Y-98107500D03*
X149128480Y-98107500D03*
X151226520Y-94297500D03*
X149128480Y-94297500D03*
X151226520Y-90487500D03*
X149128480Y-90487500D03*
X151226520Y-86677500D03*
X149128480Y-86677500D03*
X151226520Y-82867500D03*
X149128480Y-82867500D03*
X151226520Y-79057500D03*
X149128480Y-79057500D03*
D13*
X140970000Y-72390000D03*
D14*
X138430000Y-72390000D03*
X135890000Y-72390000D03*
X133350000Y-72390000D03*
X130810000Y-72390000D03*
D15*
X116285000Y-105410000D03*
X113585000Y-105410000D03*
X116285000Y-101600000D03*
X113585000Y-101600000D03*
X116285000Y-97790000D03*
X113585000Y-97790000D03*
X116285000Y-93980000D03*
X113585000Y-93980000D03*
X116285000Y-90170000D03*
X113585000Y-90170000D03*
X116285000Y-86360000D03*
X113585000Y-86360000D03*
X116285000Y-82550000D03*
X113585000Y-82550000D03*
X116285000Y-78740000D03*
X113585000Y-78740000D03*
X154542500Y-105727500D03*
X157242500Y-105727500D03*
X154542500Y-101917500D03*
X157242500Y-101917500D03*
X154542500Y-98107500D03*
X157242500Y-98107500D03*
X154542500Y-94297500D03*
X157242500Y-94297500D03*
X154542500Y-90487500D03*
X157242500Y-90487500D03*
X154542500Y-86677500D03*
X157242500Y-86677500D03*
X154542500Y-82867500D03*
X157242500Y-82867500D03*
X154542500Y-79057500D03*
X157242500Y-79057500D03*
D16*
X131445000Y-93345000D03*
X133985000Y-93345000D03*
X135255000Y-93345000D03*
X136525000Y-93345000D03*
X137795000Y-93345000D03*
X139065000Y-93345000D03*
X140335000Y-93345000D03*
X140335000Y-99695000D03*
X139065000Y-99695000D03*
X137795000Y-99695000D03*
X136525000Y-99695000D03*
X135255000Y-99695000D03*
X133985000Y-99695000D03*
X132715000Y-99695000D03*
X131445000Y-99695000D03*
X132715000Y-93345000D03*
X131445000Y-78740000D03*
X133985000Y-78740000D03*
X135255000Y-78740000D03*
X136525000Y-78740000D03*
X137795000Y-78740000D03*
X139065000Y-78740000D03*
X140335000Y-78740000D03*
X140335000Y-85090000D03*
X139065000Y-85090000D03*
X137795000Y-85090000D03*
X136525000Y-85090000D03*
X135255000Y-85090000D03*
X133985000Y-85090000D03*
X132715000Y-85090000D03*
X131445000Y-85090000D03*
X132715000Y-78740000D03*
M02*
